<svg width="41" height="40" viewBox="0 0 41 40" fill="none" xmlns="http://www.w3.org/2000/svg">
<path d="M19.5905 5.84514L10.5072 21.7618C10.163 22.3505 10.164 23.0793 10.5098 23.6671C10.8555 24.2549 11.492 24.6099 12.1738 24.5951H16.9405C17.5534 24.5907 18.1427 24.8311 18.5776 25.2629C19.0126 25.6947 19.2572 26.2822 19.2572 26.8951V32.9118C19.2628 33.6427 19.7441 34.2847 20.4441 34.4951C21.1441 34.7055 21.8995 34.4352 22.3072 33.8285L31.1072 20.6285C31.4923 20.0477 31.5286 19.3027 31.2018 18.6872C30.8749 18.0718 30.2373 17.6846 29.5405 17.6785H25.0072C23.7369 17.6785 22.7072 16.6487 22.7072 15.3785V6.67847C22.7125 5.91949 22.2043 5.25277 21.4711 5.05672C20.7378 4.86066 19.9647 5.18479 19.5905 5.84514Z" fill="#C6D612"/>
</svg>
