<svg width="41" height="41" viewBox="0 0 41 41" fill="none" xmlns="http://www.w3.org/2000/svg">
<path d="M23.9229 20.2666C23.9229 22.0707 22.4603 23.5333 20.6562 23.5333C18.8521 23.5333 17.3895 22.0707 17.3895 20.2666C17.3895 18.4625 18.8521 16.9999 20.6562 16.9999C22.4603 16.9999 23.9229 18.4625 23.9229 20.2666Z" fill="#C1AAFF"/>
<path fill-rule="evenodd" clip-rule="evenodd" d="M33.0336 15.1345C33.3511 15.9081 34.1034 16.4142 34.9396 16.4166C35.4877 16.4166 36.0133 16.6343 36.4009 17.0219C36.7885 17.4095 37.0062 17.9351 37.0062 18.4833V22.0499C37.0062 23.1913 36.0809 24.1166 34.9396 24.1166C34.1034 24.119 33.3511 24.6251 33.0336 25.3986C32.7162 26.1722 32.8961 27.0608 33.4895 27.6499C34.2856 28.4657 34.2856 29.7675 33.4895 30.5833L30.9895 33.0833C30.1738 33.8793 28.872 33.8793 28.0562 33.0833C27.4671 32.4898 26.5785 32.3099 25.8049 32.6273C25.0314 32.9448 24.5253 33.6971 24.5229 34.5333C24.5229 35.6746 23.5976 36.5999 22.4562 36.5999H18.8895C17.7482 36.5999 16.8229 35.6746 16.8229 34.5333C16.8205 33.6971 16.3144 32.9448 15.5408 32.6273C14.7673 32.3099 13.8786 32.4898 13.2895 33.0833C12.4738 33.8793 11.172 33.8793 10.3562 33.0833L7.85622 30.5833C7.06016 29.7675 7.06016 28.4657 7.85622 27.6499C8.4518 27.0587 8.63071 26.166 8.30898 25.3909C7.98724 24.6158 7.22875 24.1123 6.38955 24.1166C5.24816 24.1166 4.32288 23.1913 4.32288 22.0499V18.4833C4.32288 17.3419 5.24816 16.4166 6.38955 16.4166C7.22571 16.4142 7.97802 15.9081 8.29547 15.1345C8.61292 14.361 8.43296 13.4724 7.83955 12.8833C7.0435 12.0675 7.0435 10.7657 7.83955 9.94992L10.3396 7.44992C11.1553 6.65387 12.4571 6.65387 13.2729 7.44992C13.8641 8.0455 14.7568 8.22442 15.5319 7.90268C16.307 7.58095 16.8105 6.82245 16.8062 5.98325C16.8062 4.84187 17.7315 3.91659 18.8729 3.91659H22.4562C23.0043 3.91659 23.53 4.13433 23.9176 4.5219C24.3051 4.90948 24.5229 5.43514 24.5229 5.98325C24.5185 6.82245 25.0221 7.58095 25.7972 7.90268C26.5723 8.22442 27.465 8.0455 28.0562 7.44992C28.872 6.65387 30.1738 6.65387 30.9895 7.44992L33.4895 9.94992C34.2856 10.7657 34.2856 12.0675 33.4895 12.8833C32.8961 13.4724 32.7162 14.361 33.0336 15.1345ZM14.8895 20.2666C14.8895 23.4514 17.4714 26.0333 20.6562 26.0333C23.8411 26.0333 26.4229 23.4514 26.4229 20.2666C26.4229 17.0817 23.8411 14.4999 20.6562 14.4999C17.4714 14.4999 14.8895 17.0817 14.8895 20.2666Z" fill="#C1AAFF"/>
</svg>
