<svg width="90" height="90" viewBox="0 0 90 90" fill="none" xmlns="http://www.w3.org/2000/svg">
<path fill-rule="evenodd" clip-rule="evenodd" d="M14.0625 23.9062C14.0625 18.4697 18.4697 14.0625 23.9062 14.0625H45C50.4366 14.0625 54.8438 18.4697 54.8438 23.9062V30.2344C54.8438 31.011 54.2141 31.6406 53.4375 31.6406C52.6609 31.6406 52.0312 31.011 52.0312 30.2344V23.9062C52.0312 20.023 48.8833 16.875 45 16.875H23.9062C20.023 16.875 16.875 20.023 16.875 23.9062V66.0938C16.875 69.977 20.023 73.125 23.9062 73.125H45C48.8833 73.125 52.0312 69.977 52.0312 66.0938V59.7656C52.0312 58.989 52.6609 58.3594 53.4375 58.3594C54.2141 58.3594 54.8438 58.989 54.8438 59.7656V66.0938C54.8438 71.5303 50.4366 75.9375 45 75.9375H23.9062C18.4697 75.9375 14.0625 71.5303 14.0625 66.0938V23.9062ZM45.1155 60.0568C44.5663 60.606 43.6759 60.606 43.1267 60.0568L30.5558 47.4859C29.1829 46.113 29.1829 43.887 30.5558 42.5141L43.1267 29.9432C43.6759 29.394 44.5663 29.394 45.1154 29.9431C45.6646 30.4923 45.6646 31.3827 45.1154 31.9319L33.4537 43.5937L74.5312 43.5937C75.3079 43.5937 75.9375 44.2233 75.9375 44.9999C75.9375 45.7766 75.3079 46.4062 74.5312 46.4062L33.4535 46.4062L45.1155 58.0681C45.6646 58.6173 45.6646 59.5077 45.1155 60.0568Z" fill="#666886"/>
</svg>
