<svg width="31" height="31" viewBox="0 0 31 31" fill="none" xmlns="http://www.w3.org/2000/svg">
<path d="M17.6805 28.1552H13.1519C12.5673 28.1552 12.0615 27.7484 11.9364 27.1773L11.43 24.8334C10.7545 24.5374 10.114 24.1673 9.52027 23.7298L7.2348 24.4576C6.67744 24.6354 6.07153 24.4008 5.77917 23.8941L3.50989 19.9738C3.22074 19.4668 3.32035 18.8273 3.75 18.4323L5.52288 16.815C5.44226 16.0823 5.44226 15.343 5.52288 14.6104L3.75 12.9967C3.31972 12.6016 3.22006 11.9613 3.50989 11.454L5.7742 7.53129C6.06655 7.02456 6.67246 6.78996 7.22983 6.9677L9.51529 7.69552C9.81893 7.47052 10.135 7.26284 10.4621 7.07345C10.776 6.89641 11.0991 6.7361 11.43 6.59322L11.9376 4.25177C12.0621 3.68068 12.5674 3.27326 13.1519 3.27264H17.6805C18.265 3.27326 18.7703 3.68068 18.8948 4.25177L19.4073 6.59446C19.7567 6.74813 20.0969 6.92177 20.4263 7.11451C20.7339 7.29214 21.0313 7.48695 21.3171 7.69801L23.6038 6.97019C24.1608 6.79311 24.7659 7.02762 25.0582 7.53378L27.3225 11.4565C27.6116 11.9635 27.512 12.603 27.0824 12.998L25.3095 14.6154C25.3901 15.348 25.3901 16.0873 25.3095 16.8199L27.0824 18.4373C27.512 18.8323 27.6116 19.4718 27.3225 19.9788L25.0582 23.9015C24.7659 24.4077 24.1608 24.6422 23.6038 24.4651L21.3171 23.7373C21.0277 23.9504 20.727 24.1477 20.4163 24.3283C20.0902 24.5172 19.7537 24.688 19.4086 24.8396L18.8948 27.1773C18.7698 27.7479 18.2646 28.1547 17.6805 28.1552ZM15.4112 10.7374C12.6628 10.7374 10.4347 12.9655 10.4347 15.7139C10.4347 18.4624 12.6628 20.6904 15.4112 20.6904C18.1597 20.6904 20.3877 18.4624 20.3877 15.7139C20.3877 12.9655 18.1597 10.7374 15.4112 10.7374Z" fill="#666886"/>
</svg>
